<?xml version="1.0" standalone="no"?>
<!DOCTYPE svg PUBLIC "-//W3C//DTD SVG 20010904//EN"
 "http://www.w3.org/TR/2001/REC-SVG-20010904/DTD/svg10.dtd">
<svg version="1.0" xmlns="http://www.w3.org/2000/svg"
 width="260.000000pt" height="260.000000pt" viewBox="0 0 260.000000 260.000000"
 preserveAspectRatio="xMidYMid meet">
<metadata>
Created by potrace 1.11, written by Peter Selinger 2001-2013
</metadata>
<g transform="translate(0.000000,260.000000) scale(0.100000,-0.100000)"
fill="#000000" stroke="none">
<path d="M1430 2163 c-118 -69 -235 -137 -260 -151 -25 -14 -247 -142 -495
-285 -247 -143 -501 -289 -562 -325 -62 -35 -113 -69 -113 -76 0 -6 24 -24 53
-39 28 -14 95 -49 147 -77 52 -29 147 -79 210 -112 63 -33 138 -73 165 -88 28
-15 95 -51 150 -80 55 -29 124 -66 153 -82 34 -19 60 -27 73 -23 11 4 68 35
127 69 59 35 303 176 542 313 239 138 449 259 467 269 98 58 153 90 193 112
25 14 50 28 55 32 6 4 28 18 50 30 98 53 215 125 215 131 0 7 -48 34 -370 204
-168 89 -254 135 -382 204 -118 63 -192 101 -198 100 -3 0 -102 -57 -220 -126z"/>
<path d="M2160 1446 c-19 -13 -125 -75 -235 -138 -110 -64 -299 -173 -420
-243 -283 -164 -280 -163 -345 -198 -30 -17 -66 -38 -80 -47 -14 -9 -51 -31
-82 -48 l-58 -32 -97 51 c-54 28 -125 66 -158 84 -68 36 -247 132 -284 151
-21 11 -30 10 -65 -11 -23 -13 -106 -61 -186 -107 -80 -46 -145 -90 -145 -97
0 -8 34 -32 75 -53 41 -22 107 -57 147 -79 40 -21 107 -57 150 -80 73 -38 225
-120 335 -179 26 -14 88 -46 137 -72 l91 -48 46 26 c93 52 622 358 741 428
l52 31 296 0 c219 0 292 2 282 11 -6 6 -70 42 -142 79 -71 37 -134 69 -139 72
-4 3 14 18 40 32 58 32 87 49 309 177 94 54 172 99 174 101 10 8 -29 33 -134
88 -60 32 -138 73 -172 91 -71 40 -86 41 -133 10z"/>
</g>
</svg>
